<?xml version="1.0" encoding="utf-8"?>
<!-- Generator: Adobe Illustrator 25.2.1, SVG Export Plug-In . SVG Version: 6.00 Build 0)  -->
<svg version="1.1" id="Layer_1" xmlns="http://www.w3.org/2000/svg" xmlns:xlink="http://www.w3.org/1999/xlink" x="0px" y="0px"
	 viewBox="0 0 1920 1080" style="enable-background:new 0 0 1920 1080;" xml:space="preserve">
<style type="text/css">
	.st0{fill:#5EBA47;}
	.st1{fill:#1C3056;}
</style>
<g>
	<g>
		<circle class="st0" cx="1156.77" cy="324.27" r="58.29"/>
		<path class="st1" d="M330.29,403.83h102.01v306.04H330.29V403.83z"/>
		<path class="st1" d="M471.7,557.26c0-118.6,70.08-156.34,168.36-156.34c26.95,0,56.4,3.32,82.94,8.29v41.17
			c-22.81-3.32-43.54-4.56-61.38-4.56c-53.91,0-85.01,38.29-85.01,110.61c0,71.8,31.1,111.44,85.01,111.44
			c17.83,0,38.98-1.24,61.38-4.56v41.17c-25.3,5.39-55.98,8.29-82.94,8.29C542.2,712.77,471.7,675.45,471.7,557.26z"/>
		<path class="st1" d="M1021.58,403.83h270.38v50.69h-84.18v255.35h-101.6V454.52h-84.6V403.83z"/>
		<path class="st1" d="M1574.75,403.83h-24.03h-11.62v182.89c0,53.5-13.65,78.38-59.54,78.38c-44.37,0-58.4-24.88-58.4-78.38V403.83
			h-13.47h-82.1h-8.33v185.78c0,75.89,32.75,111.8,97.48,121.56c11.64,1.92,24.39,2.85,38.28,2.85c0.59,0,1.15-0.02,1.73-0.02
			c0.62,0,1.22,0.02,1.85,0.02c92.89,0,133.12-32.76,133.12-123.99v-186.2H1574.75z"/>
		<path class="st1" d="M941.42,403.83h-94.08L737.3,709.87h53.87l23.04-64.08h108.64l24.01,64.08h109.24h0.02L942.09,403.83H941.42z
			 M832.44,595.1l34.97-97.26l36.45,97.26H832.44z"/>
	</g>
</g>
</svg>
